<?xml version="1.0" encoding="UTF-8" standalone="no"?>
<svg
   viewBox="0 0 363.37 94.73"
   version="1.1"
   id="svg1"
   sodipodi:docname="logo-light.svg"
   inkscape:version="1.4 (86a8ad7, 2024-10-11)"
   xmlns:inkscape="http://www.inkscape.org/namespaces/inkscape"
   xmlns:sodipodi="http://sodipodi.sourceforge.net/DTD/sodipodi-0.dtd"
   xmlns:xlink="http://www.w3.org/1999/xlink"
   xmlns="http://www.w3.org/2000/svg"
   xmlns:svg="http://www.w3.org/2000/svg">
  <sodipodi:namedview
     id="namedview1"
     pagecolor="#ffffff"
     bordercolor="#000000"
     borderopacity="0.25"
     inkscape:showpageshadow="2"
     inkscape:pageopacity="0.0"
     inkscape:pagecheckerboard="0"
     inkscape:deskcolor="#d1d1d1"
     inkscape:zoom="1.7280206"
     inkscape:cx="240.15917"
     inkscape:cy="96.06367"
     inkscape:window-width="1388"
     inkscape:window-height="906"
     inkscape:window-x="438"
     inkscape:window-y="86"
     inkscape:window-maximized="0"
     inkscape:current-layer="svg1" />
  <defs
     id="defs1">
    <style
       id="style1">.cls-1{fill:#4c9fe3;}.cls-2{fill:#316a99;}.cls-3{fill:#2d3849;}</style>
    <linearGradient
       inkscape:collect="always"
       xlink:href="#linearGradient2"
       id="linearGradient3"
       x1="207.44205"
       y1="37.355446"
       x2="455.72659"
       y2="38.992249"
       gradientUnits="userSpaceOnUse" />
    <linearGradient
       id="linearGradient2"
       inkscape:collect="always">
      <stop
         style="stop-color:#000000;stop-opacity:1;"
         offset="0.99989998"
         id="stop2" />
      <stop
         style="stop-color:#000000;stop-opacity:0;"
         offset="1"
         id="stop3" />
    </linearGradient>
  </defs>
  <g
     id="Layer_2"
     data-name="Layer 2">
    <g
       id="_hkcGc1TWxMQnvrJ-o7pxz"
       data-name=" hkcGc1TWxMQnvrJ-o7pxz">
      <g
         id="_2pGrrHDisTubxdFeOQ9h1"
         data-name=" 2pGrrHDisTubxdFeOQ9h1">
        <path
           id="_fclVC_gW3knTSnF4jsxLl"
           data-name=" fclVC gW3knTSnF4jsxLl"
           class="cls-1"
           d="M53.47,19.76l-5.28-5.09a2.19,2.19,0,0,0-3.1.05L13.93,47a2.19,2.19,0,0,0,.06,3.1L45.79,80.8a2.19,2.19,0,0,0,3.1-.06L80,48.47A2.17,2.17,0,0,0,80,45.38l-12-11.64,8-8.29L91.12,40.1a9.38,9.38,0,0,1,.23,13.26L54.16,91.87a9.38,9.38,0,0,1-13.26.23l-38-36.73A9.39,9.39,0,0,1,2.63,42.1L39.82,3.6a9.37,9.37,0,0,1,13.26-.23l8.39,8.1Z" />
        <path
           id="_2yC6JlP49xF4W450B5ghS"
           data-name=" 2yC6JlP49xF4W450B5ghS"
           class="cls-2"
           d="M76.22,75l5.27,5.09a2.19,2.19,0,0,0,3.1,0l31.16-32.27a2.19,2.19,0,0,0-.06-3.1L83.9,13.93a2.19,2.19,0,0,0-3.1.06L49.64,46.25a2.19,2.19,0,0,0,0,3.1L61.75,61l-8,8.29L38.57,54.63a9.37,9.37,0,0,1-.23-13.26L75.52,2.86a9.38,9.38,0,0,1,13.26-.23l38,36.73a9.38,9.38,0,0,1,.23,13.27L89.87,91.13a9.38,9.38,0,0,1-13.27.23l-8.39-8.1Z" />
      </g>
    </g>
  </g>
  <text
     xml:space="preserve"
     style="font-style:normal;font-variant:normal;font-weight:normal;font-stretch:normal;font-size:64px;font-family:Calibri;-inkscape-font-specification:Calibri;text-align:start;writing-mode:lr-tb;direction:ltr;text-anchor:start;white-space:pre;inline-size:297.402;fill:#000000;stroke:url(#linearGradient3)"
     x="202.96342"
     y="50.740856"
     id="text2"
     transform="translate(-73.908105,16.069114)"><tspan
       x="202.96342"
       y="50.740856"
       id="tspan2">Blog Axel</tspan></text>
</svg>
